<svg width="34" height="37" viewBox="0 0 34 37" fill="none" xmlns="http://www.w3.org/2000/svg">
<path d="M28.3763 1.87459H32.1254V5.62376" stroke="#312EC7" stroke-width="1.5" stroke-linecap="round" stroke-linejoin="round"/>
<path d="M28.3763 34.6783H32.1254V30.9291" stroke="#312EC7" stroke-width="1.5" stroke-linecap="round" stroke-linejoin="round"/>
<path d="M5.62379 1.87459H1.87462V5.62376" stroke="#312EC7" stroke-width="1.5" stroke-linecap="round" stroke-linejoin="round"/>
<path d="M5.62379 34.6783H1.87462V30.9291" stroke="#312EC7" stroke-width="1.5" stroke-linecap="round" stroke-linejoin="round"/>
<path d="M10 11H12.3333V13.3333H10V11Z" fill="black"/>
<path d="M6.5 16.8333V7.5H15.8333V16.8333H6.5ZM8.83333 9.83333V14.5H13.5V9.83333H8.83333ZM18.1667 19.1667H21.6667V21.5H18.1667V19.1667Z" fill="black"/>
<path d="M21.6667 21.5H24V19.1667H27.5V22.6667H24V23.8333H25.1667V25H27.5V28.5H25.1667V26.1667H22.8334V28.5H18.1667V23.8333H20.5V26.1667H21.6667V21.5ZM24 11H21.6667V13.3333H24V11Z" fill="black"/>
<path d="M18.1667 7.5V16.8333H27.5V7.5H18.1667ZM25.1667 9.83333V14.5H20.5V9.83333H25.1667ZM10 22.6667H12.3333V25H10V22.6667Z" fill="black"/>
<path d="M6.5 28.5V19.1666H15.8333V28.5H6.5ZM8.83333 21.5V26.1666H13.5V21.5H8.83333Z" fill="black"/>
</svg>
