<svg width="22" height="22" viewBox="0 0 22 22" fill="none" xmlns="http://www.w3.org/2000/svg">
<g clip-path="url(#clip0_13_1044)">
<path d="M21.6562 10.9798C21.6671 16.8511 16.879 21.6521 11.0077 21.6562C8.47193 21.658 6.14268 20.7741 4.31226 19.2968C3.83629 18.9126 3.80071 18.1993 4.23324 17.7668L4.71737 17.2826C5.08729 16.9127 5.67785 16.8722 6.08768 17.1974C7.43626 18.2675 9.14293 18.9062 11 18.9062C15.3701 18.9062 18.9062 15.3694 18.9062 11C18.9062 6.62986 15.3694 3.09375 11 3.09375C8.90252 3.09375 6.9975 3.90882 5.58302 5.23927L7.76385 7.4201C8.19698 7.85323 7.89022 8.59375 7.27775 8.59375H1.03125C0.651535 8.59375 0.34375 8.28596 0.34375 7.90625V1.65975C0.34375 1.04728 1.08427 0.740523 1.5174 1.17361L3.63885 3.29506C5.55195 1.46678 8.14481 0.34375 11 0.34375C16.8786 0.34375 21.6454 5.10383 21.6562 10.9798ZM13.8827 14.3651L14.3048 13.8224C14.6544 13.3728 14.5735 12.7249 14.1239 12.3753L12.375 11.015V6.53125C12.375 5.9617 11.9133 5.5 11.3438 5.5H10.6562C10.0867 5.5 9.625 5.9617 9.625 6.53125V12.36L12.4355 14.546C12.8851 14.8956 13.533 14.8147 13.8827 14.3651V14.3651Z" fill="black"/>
</g>
<defs>
<clipPath id="clip0_13_1044">
<rect width="22" height="22" fill="white"/>
</clipPath>
</defs>
</svg>
