<svg width="202" height="217" viewBox="0 0 202 217" fill="none" xmlns="http://www.w3.org/2000/svg">
<path d="M168.201 11.1117H190.425V33.3351" stroke="#312EC7" stroke-width="4" stroke-linecap="round" stroke-linejoin="round"/>
<path d="M168.201 205.557H190.425V183.334" stroke="#312EC7" stroke-width="4" stroke-linecap="round" stroke-linejoin="round"/>
<path d="M33.3351 11.1117H11.1117V33.3351" stroke="#312EC7" stroke-width="4" stroke-linecap="round" stroke-linejoin="round"/>
<path d="M33.3351 205.557H11.1117V183.334" stroke="#312EC7" stroke-width="4" stroke-linecap="round" stroke-linejoin="round"/>
<path d="M63.5 70.5H76V83H63.5V70.5Z" fill="#312EC7" fill-opacity="0.53"/>
<path d="M44.75 101.75V51.75H94.75V101.75H44.75ZM57.25 64.25V89.25H82.25V64.25H57.25ZM107.25 114.25H126V126.75H107.25V114.25Z" fill="#312EC7" fill-opacity="0.53"/>
<path d="M126 126.75H138.5V114.25H157.25V133H138.5V139.25H144.75V145.5H157.25V164.25H144.75V151.75H132.25V164.25H107.25V139.25H119.75V151.75H126V126.75ZM138.5 70.5H126V83H138.5V70.5Z" fill="#312EC7" fill-opacity="0.53"/>
<path d="M107.25 51.75V101.75H157.25V51.75H107.25ZM144.75 64.25V89.25H119.75V64.25H144.75ZM63.5 133H76V145.5H63.5V133Z" fill="#312EC7" fill-opacity="0.53"/>
<path d="M44.75 164.25V114.25H94.75V164.25H44.75ZM57.25 126.75V151.75H82.25V126.75H57.25Z" fill="#312EC7" fill-opacity="0.53"/>
</svg>
